name Walk1.mot
datacolumns 19
datarows 27
range 3.41700000 3.44300000
endheader

                time	   L_ground_force_vx	   L_ground_force_vy	   L_ground_force_vz	   L_ground_force_px	   L_ground_force_py	   L_ground_force_pz	   R_ground_force_vx	   R_ground_force_vy	   R_ground_force_vz	   R_ground_force_px	   R_ground_force_py	   R_ground_force_pz	   L_ground_torque_x	   L_ground_torque_y	   L_ground_torque_z	   R_ground_torque_x	   R_ground_torque_y	   R_ground_torque_z	
          3.41700000	          9.08247559	        741.72433906	         50.63303107	         -0.24716561	          0.00000000	         -0.10208364	          0.00648625	          0.05925012	          0.01464611	          0.00006947	          0.00000000	          0.00003954	          0.00000000	          2.16934555	          0.00000000	          0.00000000	         -0.00221673	          0.00000000	
          3.41800000	          9.45808546	        742.45896582	         50.76858603	         -0.24683706	          0.00000000	         -0.10211744	          0.00666543	          0.06586520	          0.01573623	          0.00007489	          0.00000000	          0.00004259	          0.00000000	          2.16651447	          0.00000000	          0.00000000	         -0.00232288	          0.00000000	
          3.41900000	          9.83548385	        743.19174669	         50.90519836	         -0.24650777	          0.00000000	         -0.10215092	          0.00683373	          0.07282296	          0.01686266	          0.00008051	          0.00000000	          0.00004575	          0.00000000	          2.16342207	          0.00000000	          0.00000000	         -0.00242930	          0.00000000	
          3.42000000	         10.21476831	        743.92290181	         51.04283252	         -0.24617781	          0.00000000	         -0.10218408	          0.00698944	          0.08012653	          0.01802413	          0.00008631	          0.00000000	          0.00004902	          0.00000000	          2.16006176	          0.00000000	          0.00000000	         -0.00253558	          0.00000000	
          3.42100000	         10.59603621	        744.65265663	         51.18145431	         -0.24584724	          0.00000000	         -0.10221691	          0.00713076	          0.08777786	          0.01921908	          0.00009230	          0.00000000	          0.00005238	          0.00000000	          2.15642671	          0.00000000	          0.00000000	         -0.00264127	          0.00000000	
          3.42200000	         10.97938554	        745.38124001	         51.32103004	         -0.24551610	          0.00000000	         -0.10224939	          0.00725577	          0.09577767	          0.02044570	          0.00009846	          0.00000000	          0.00005584	          0.00000000	          2.15250998	          0.00000000	          0.00000000	         -0.00274586	          0.00000000	
          3.42300000	         11.36491558	        746.10888379	         51.46152585	         -0.24518447	          0.00000000	         -0.10228151	          0.00736242	          0.10412532	          0.02170187	          0.00010479	          0.00000000	          0.00005939	          0.00000000	          2.14830489	          0.00000000	          0.00000000	         -0.00284884	          0.00000000	
          3.42400000	         11.75272724	        746.83582356	         51.60290755	         -0.24485240	          0.00000000	         -0.10231328	          0.00744858	          0.11281864	          0.02298514	          0.00011127	          0.00000000	          0.00006303	          0.00000000	          2.14380541	          0.00000000	          0.00000000	         -0.00294962	          0.00000000	
          3.42500000	         12.14292303	        747.56230039	         51.74514065	         -0.24451995	          0.00000000	         -0.10234467	          0.00751198	          0.12185386	          0.02429273	          0.00011790	          0.00000000	          0.00006674	          0.00000000	          2.13900655	          0.00000000	          0.00000000	         -0.00304758	          0.00000000	
          3.42600000	         12.53560656	        748.28856275	         51.88819063	         -0.24418718	          0.00000000	         -0.10237570	          0.00755025	          0.13122543	          0.02562151	          0.00012466	          0.00000000	          0.00007053	          0.00000000	          2.13390467	          0.00000000	          0.00000000	         -0.00314206	          0.00000000	
          3.42700000	         12.93088193	        749.01486798	         52.03202315	         -0.24385414	          0.00000000	         -0.10240634	          0.00756090	          0.14092591	          0.02696794	          0.00013153	          0.00000000	          0.00007437	          0.00000000	          2.12849764	          0.00000000	          0.00000000	         -0.00323235	          0.00000000	
          3.42800000	         13.32885298	        749.74148257	         52.17660416	         -0.24352091	          0.00000000	         -0.10243659	          0.00754130	          0.15094579	          0.02832812	          0.00013849	          0.00000000	          0.00007826	          0.00000000	          2.12278493	          0.00000000	          0.00000000	         -0.00331767	          0.00000000	
          3.42900000	         13.72962266	        750.46868107	         52.32189969	         -0.24318751	          0.00000000	         -0.10246644	          0.00748875	          0.16127338	          0.02969770	          0.00014553	          0.00000000	          0.00008220	          0.00000000	          2.11676746	          0.00000000	          0.00000000	         -0.00339722	          0.00000000	
          3.43000000	         14.13329239	        751.19674419	         52.46787567	         -0.24285403	          0.00000000	         -0.10249589	          0.00740038	          0.17189462	          0.03107190	          0.00015262	          0.00000000	          0.00008616	          0.00000000	          2.11044743	          0.00000000	          0.00000000	         -0.00347013	          0.00000000	
          3.43100000	         14.53996151	        751.92595689	         52.61449764	         -0.24252051	          0.00000000	         -0.10252492	          0.00727324	          0.18279292	          0.03244547	          0.00015974	          0.00000000	          0.00009013	          0.00000000	          2.10382808	          0.00000000	          0.00000000	         -0.00353549	          0.00000000	
          3.43200000	         14.94972681	        752.65660740	         52.76173063	         -0.24218701	          0.00000000	         -0.10255354	          0.00710424	          0.19394904	          0.03381269	          0.00016687	          0.00000000	          0.00009409	          0.00000000	          2.09691355	          0.00000000	          0.00000000	         -0.00359232	          0.00000000	
          3.43300000	         15.36268209	        753.38898758	         52.90953926	         -0.24185359	          0.00000000	         -0.10258173	          0.00689020	          0.20534084	          0.03516731	          0.00017396	          0.00000000	          0.00009804	          0.00000000	          2.08970888	          0.00000000	          0.00000000	         -0.00363959	          0.00000000	
          3.43400000	         15.77891787	        754.12339442	         53.05788795	         -0.24152032	          0.00000000	         -0.10260948	          0.00662782	          0.21694319	          0.03650257	          0.00018100	          0.00000000	          0.00010195	          0.00000000	          2.08222013	          0.00000000	          0.00000000	         -0.00367622	          0.00000000	
          3.43500000	         16.19852104	        754.86013168	         53.20674120	         -0.24118725	          0.00000000	         -0.10263680	          0.00631368	          0.22872773	          0.03781115	          0.00018795	          0.00000000	          0.00010580	          0.00000000	          2.07445462	          0.00000000	          0.00000000	         -0.00370108	          0.00000000	
          3.43600000	         16.62157459	        755.59951092	         53.35606382	         -0.24085445	          0.00000000	         -0.10266367	          0.00594427	          0.24066272	          0.03908519	          0.00019476	          0.00000000	          0.00010957	          0.00000000	          2.06642110	          0.00000000	          0.00000000	         -0.00371296	          0.00000000	
          3.43700000	         17.04815721	        756.34185127	         53.50582092	         -0.24052197	          0.00000000	         -0.10269009	          0.00551599	          0.25271286	          0.04031619	          0.00020140	          0.00000000	          0.00011324	          0.00000000	          2.05812988	          0.00000000	          0.00000000	         -0.00371061	          0.00000000	
          3.43800000	         17.47834276	        757.08747821	         53.65597765	         -0.24018988	          0.00000000	         -0.10271606	          0.00502513	          0.26483908	          0.04149508	          0.00020783	          0.00000000	          0.00011679	          0.00000000	          2.04959261	          0.00000000	          0.00000000	         -0.00369272	          0.00000000	
          3.43900000	         17.91219965	        757.83672147	         53.80649884	         -0.23985824	          0.00000000	         -0.10274156	          0.00446790	          0.27699836	          0.04261215	          0.00021399	          0.00000000	          0.00012018	          0.00000000	          2.04082190	          0.00000000	          0.00000000	         -0.00365792	          0.00000000	
          3.44000000	         18.34978999	        758.58991262	         53.95734848	         -0.23952710	          0.00000000	         -0.10276658	          0.00384044	          0.28914357	          0.04365704	          0.00021985	          0.00000000	          0.00012339	          0.00000000	          2.03183062	          0.00000000	          0.00000000	         -0.00360477	          0.00000000	
          3.44100000	         18.79116879	        759.34738264	         54.10848929	         -0.23919653	          0.00000000	         -0.10279113	          0.00313881	          0.30122324	          0.04461872	          0.00022534	          0.00000000	          0.00012639	          0.00000000	          2.02263110	          0.00000000	          0.00000000	         -0.00353180	          0.00000000	
          3.44200000	         19.23638353	        760.10945941	         54.25988230	         -0.23886659	          0.00000000	         -0.10281520	          0.00235902	          0.31318138	          0.04548550	          0.00023041	          0.00000000	          0.00012914	          0.00000000	          2.01323437	          0.00000000	          0.00000000	         -0.00343746	          0.00000000	
          3.44300000	         19.68547416	        760.87646501	         54.41148666	         -0.23853736	          0.00000000	         -0.10283878	          0.00149703	          0.32495733	          0.04624497	          0.00023500	          0.00000000	          0.00013162	          0.00000000	          2.00364968	          0.00000000	          0.00000000	         -0.00332016	          0.00000000	
